<?xml version="1.0" encoding="utf-8"?>
<!-- Generator: Adobe Illustrator 22.0.1, SVG Export Plug-In . SVG Version: 6.00 Build 0)  -->
<svg version="1.1" id="Layer_1" xmlns="http://www.w3.org/2000/svg" xmlns:xlink="http://www.w3.org/1999/xlink" x="0px" y="0px"
	 viewBox="0 0 476 594" style="enable-background:new 0 0 476 594;" xml:space="preserve">
<style type="text/css">
	.st0{fill:#6A6969;}
</style>
<g>
	<g>
		<path class="st0" d="M351.4,41H123.9C80,41,44.6,77.2,44.6,121.1v352.7c0,43.9,35.4,79.2,79.3,79.2h227.6c43.9,0,80-35.3,80-79.2
			V121.1C431.4,77.2,395.4,41,351.4,41z M408.7,473.8c0,31.4-25.9,56.5-57.2,56.5H123.9c-31.4,0-56.6-25.1-56.6-56.5V121.1
			c0-31.4,25.2-57.4,56.6-57.4h227.6c31.4,0,57.2,26,57.2,57.4V473.8z"/>
	</g>
</g>
<g>
	<g>
		<rect x="134.6" y="97.9" class="st0" width="204.8" height="22.8"/>
	</g>
</g>
<g>
	<g>
		<path class="st0" d="M134.6,211.7h-11.4c-6.3,0-11.4,5.1-11.4,11.4v22.8c0,6.3,5.1,11.4,11.4,11.4h11.4c6.3,0,11.4-5.1,11.4-11.4
			V223C146,216.8,140.9,211.7,134.6,211.7z"/>
	</g>
</g>
<g>
	<g>
		<path class="st0" d="M134.6,314.1h-11.4c-6.3,0-11.4,5.1-11.4,11.4v22.8c0,6.3,5.1,11.4,11.4,11.4h11.4c6.3,0,11.4-5.1,11.4-11.4
			v-22.8C146,319.2,140.9,314.1,134.6,314.1z"/>
	</g>
</g>
<g>
	<g>
		<path class="st0" d="M134.6,416.5h-11.4c-6.3,0-11.4,5.1-11.4,11.4v22.8c0,6.3,5.1,11.4,11.4,11.4h11.4c6.3,0,11.4-5.1,11.4-11.4
			v-22.8C146,421.6,140.9,416.5,134.6,416.5z"/>
	</g>
</g>
<g>
	<g>
		<rect x="180.1" y="223" class="st0" width="182" height="22.8"/>
	</g>
</g>
<g>
	<g>
		<rect x="180.1" y="325.4" class="st0" width="182" height="22.8"/>
	</g>
</g>
<g>
	<g>
		<rect x="180.1" y="427.8" class="st0" width="182" height="22.8"/>
	</g>
</g>
</svg>
