<?xml version="1.0" encoding="utf-8"?>
<!-- Generator: Adobe Illustrator 22.0.1, SVG Export Plug-In . SVG Version: 6.00 Build 0)  -->
<svg version="1.1" id="Layer_1" xmlns="http://www.w3.org/2000/svg" xmlns:xlink="http://www.w3.org/1999/xlink" x="0px" y="0px"
	 viewBox="0 0 614.1 140.5" style="enable-background:new 0 0 614.1 140.5;" xml:space="preserve">
<style type="text/css">
	.st0{fill:#40513B;}
	.st1{fill:#62775C;}
</style>
<g>
	<path class="st0" d="M299.9,22c-5.3,6.9-10.4,13.6-15.7,20.5c-3.3-2.4-6.4-4.9-9.7-7.1c-7.7-5.2-16-8.5-25.5-6.7
		c-4.2,0.8-7.9,2.6-9.9,6.7c-2.5,5.1-1.1,10.5,4.4,13.3c6.5,3.4,13.4,6,20.1,9c7,3.2,14.1,6,20.8,9.7c23.9,13.2,22.2,50.2-2.4,63.3
		c-22.3,11.9-50.6,7.7-70.3-10.5c-2.2-2.1-4.7-3.9-7.3-6.1c6.3-7.5,11.9-14.2,17.7-21.1c2.3,2.6,4.2,5,6.3,7.2
		c9.7,9.9,21.3,14.1,35.1,11c7.2-1.6,10.4-5,11-10.6c0.6-5.8-1.7-9.8-8.4-12.8c-7.5-3.4-15.4-6-22.9-9.5c-6.1-2.8-12.3-5.7-17.7-9.6
		c-18.8-13.9-19-41.6-0.3-55.8c15.9-12.1,33.5-12,51.5-5.3C285.3,10.7,292.7,15.9,299.9,22z"/>
	<path class="st0" d="M209,136.5c-8.7,0-17.1,0.1-25.4-0.2c-1.1,0-2.7-2.2-3.2-3.7c-9.4-25.2-18.6-50.5-27.8-75.8
		c-1.4-3.7-2.8-7.4-4.6-12.4c-1.1,2.5-1.8,3.9-2.3,5.3c-10.1,27.6-20.2,55.2-30.1,82.8c-1,2.8-2.1,4.2-5.4,4.1
		c-7.6-0.3-15.3-0.1-23.6-0.1c2.8-7.6,5.5-14.7,8.2-21.8c13.4-35.5,26.9-70.9,40.3-106.4c1.2-3.1,2.6-4.3,5.9-4.1
		c5,0.3,10.1-0.1,15.2,0.2c1.4,0.1,3.5,1.3,4,2.6c16.3,42.4,32.3,84.9,48.5,127.4C208.6,134.9,208.7,135.4,209,136.5z"/>
	<path class="st1" d="M339.4,136.2c-8.6,0-16.8,0-25.5,0c0-43.8,0-87.5,0-132c7.8,0,15.7-0.1,23.6,0.2c0.7,0,2,2.7,2,4.1
		c0.1,15.2,0.1,30.4,0.1,45.6c0,1.6,0,3.2,0,4.9c0.4,0.1,0.7,0.2,1.1,0.3c6.4-7.7,12.9-15.5,19.3-23.2C368,26.5,376,17,383.8,7.3
		c1.9-2.4,4-3.2,7-3.2c9.5,0.2,18.9,0.1,29.4,0.1c-2.8,3.4-4.9,6-7.2,8.7c-23.3,27.5-46.7,55-70.1,82.4c-2.5,2.9-3.5,5.7-3.4,9.5
		c0.2,8.7,0.1,17.5,0.1,26.2C339.6,132.7,339.4,134.3,339.4,136.2z"/>
	<path class="st0" d="M40.1,29.1c-12.1,0-23.7,0-35.7,0c0-8.4,0-16.3,0-24.5c32.5,0,65,0,98,0c0,7.9,0,15.8,0,24.2
		c-11.8,0-23.5,0-35.8,0c0,36,0,71.5,0,107.4c-9,0-17.5,0-26.5,0C40.1,100.6,40.1,65.1,40.1,29.1z"/>
	<path class="st0" d="M423.6,28.6c0-8.1,0-15.9,0-24c28.3,0,56.4,0,84.8,0c0,7.9,0,15.8,0,24C480.3,28.6,452.2,28.6,423.6,28.6z"/>
	<path class="st0" d="M609.6,4.5c0,8.1,0,16,0,24.2c-28.3,0-56.4,0-84.8,0c0-8.1,0-16,0-24.2C553.1,4.5,581.2,4.5,609.6,4.5z"/>
	<path class="st0" d="M423.7,82.8c0-7.9,0-15.8,0-24.1c28.2,0,56.3,0,84.8,0c0,8,0,15.9,0,24.1C480.3,82.8,452.2,82.8,423.7,82.8z"
		/>
	<path class="st0" d="M609.6,82.9c-28.5,0-56.6,0-84.8,0c0-8.2,0-16,0-24.3c28.3,0,56.4,0,84.8,0C609.6,66.7,609.6,74.6,609.6,82.9z
		"/>
	<path class="st0" d="M609.7,136.3c-28.4,0-56.4,0-84.8,0c0-7.7,0-15.4,0-23.6c28.1,0,56.3,0,84.8,0
		C609.7,120.4,609.7,128,609.7,136.3z"/>
	<path class="st0" d="M508.6,112.2c0,8.4,0,16,0,24c-28.3,0-56.4,0-85.2,0c0-7.2-0.1-14.5,0.2-21.8c0-0.8,2.3-2,3.6-2.1
		c8.4-0.2,16.9-0.1,25.3-0.1c16.9,0,33.7,0,50.6,0C504.7,112.2,506.4,112.2,508.6,112.2z"/>
	<path class="st0" d="M420.6,136.5c-10.9,0-20.5,0.1-30.1-0.1c-1.3,0-3.1-0.8-3.8-1.7c-7.2-9.7-14.3-19.5-22.1-30.3
		c3.5,0,6.2,0,8.8,0c6.9,0,13.8-0.1,20.7,0.1c1.4,0,3.3,0.4,4,1.4C405.4,115.7,412.6,125.7,420.6,136.5z"/>
	<path class="st1" d="M147.9,136.4c-7-10.8-13.5-21-20.5-31.7c13.8,0,26.8,0,40.7,0C161.4,115.3,154.9,125.5,147.9,136.4z"/>
</g>
</svg>
